<svg xmlns="http://www.w3.org/2000/svg" viewBox="0 0 256 256"><defs><style>.a{fill:#e3d2ac;}.b{fill:#ebe2be;}.c{fill:#dbb167;}.d{fill:#cf9953;}.e{fill:#f7f4d5;}.f{fill:#171717;}.g{fill:#e8c67b;}.h{fill:#f5da89;}.i{fill:#fff;}</style></defs><rect class="a" x="224" y="224" width="32" height="32"/><rect class="a" x="224" y="192" width="32" height="32"/><rect class="b" x="224" y="160" width="32" height="32"/><rect class="b" x="224" y="128" width="32" height="32"/><rect class="c" x="224" y="96" width="32" height="32"/><rect class="c" x="224" y="64" width="32" height="32"/><rect class="d" x="224" y="32" width="32" height="32"/><rect class="d" x="224" width="32" height="32"/><rect class="a" x="192" y="224" width="32" height="32"/><rect class="b" x="192" y="192" width="32" height="32"/><rect class="e" x="192" y="160" width="32" height="32"/><rect class="e" x="192" y="128" width="32" height="32"/><rect class="f" x="192" y="96" width="32" height="32"/><rect class="g" x="192" y="64" width="32" height="32"/><rect class="c" x="192" y="32" width="32" height="32"/><rect class="d" x="192" width="32" height="32"/><rect class="b" x="160" y="224" width="32" height="32"/><rect x="160" y="192" width="32" height="32"/><rect class="b" x="160" y="160" width="32" height="32"/><rect class="h" x="160" y="128" width="32" height="32"/><rect class="i" x="160" y="96" width="32" height="32"/><rect class="g" x="160" y="64" width="32" height="32"/><rect class="c" x="160" y="32" width="32" height="32"/><rect class="d" x="160" width="32" height="32"/><rect class="b" x="128" y="224" width="32" height="32"/><rect class="f" x="128" y="192" width="32" height="32"/><rect class="g" x="128" y="160" width="32" height="32"/><rect x="128" y="128" width="32" height="32"/><rect class="h" x="128" y="96" width="32" height="32"/><rect class="h" x="128" y="64" width="32" height="32"/><rect class="g" x="128" y="32" width="32" height="32"/><rect class="c" x="128" width="32" height="32"/><rect class="b" x="96" y="224" width="32" height="32"/><rect class="f" x="96" y="192" width="32" height="32"/><rect class="g" x="96" y="160" width="32" height="32"/><rect x="96" y="128" width="32" height="32"/><rect class="h" x="96" y="96" width="32" height="32"/><rect class="h" x="96" y="64" width="32" height="32"/><rect class="g" x="96" y="32" width="32" height="32"/><rect class="c" x="96" width="32" height="32"/><rect class="a" x="64" y="224" width="32" height="32"/><rect x="64" y="192" width="32" height="32"/><rect class="b" x="64" y="160" width="32" height="32"/><rect class="h" x="64" y="128" width="32" height="32"/><rect class="f" x="64" y="96" width="32" height="32"/><rect class="h" x="64" y="64" width="32" height="32"/><rect class="g" x="64" y="32" width="32" height="32"/><rect class="c" x="64" width="32" height="32"/><rect class="a" x="32" y="224" width="32" height="32"/><rect class="b" x="32" y="192" width="32" height="32"/><rect class="e" x="32" y="160" width="32" height="32"/><rect class="e" x="32" y="128" width="32" height="32"/><rect class="i" x="32" y="96" width="32" height="32"/><rect class="g" x="32" y="64" width="32" height="32"/><rect class="c" x="32" y="32" width="32" height="32"/><rect class="d" x="32" width="32" height="32"/><rect class="a" y="224" width="32" height="32"/><rect class="a" y="192" width="32" height="32"/><rect class="b" y="160" width="32" height="32"/><rect class="b" y="128" width="32" height="32"/><rect class="g" y="96" width="32" height="32"/><rect class="c" y="64" width="32" height="32"/><rect class="d" y="32" width="32" height="32"/><rect class="d" width="32" height="32"/></svg>