<svg xmlns="http://www.w3.org/2000/svg" viewBox="0 0 199 194"><defs><style>.a{fill:#fff;}</style></defs><rect class="a" x="0.5" y="0.5" width="196.97" height="48.27" rx="11.5"/><path d="M214,32a11,11,0,0,1,11,11V68.27a11,11,0,0,1-11,11H40a11,11,0,0,1-11-11V43A11,11,0,0,1,40,32H214m0-1H40A12,12,0,0,0,28,43V68.27a12,12,0,0,0,12,12H214a12,12,0,0,0,12-12V43a12,12,0,0,0-12-12Z" transform="translate(-28 -31)"/><rect class="a" x="1.53" y="72.87" width="196.97" height="48.27" rx="11.5"/><path d="M215,104.37a11,11,0,0,1,11,11v25.26a11,11,0,0,1-11,11H41a11,11,0,0,1-11-11V115.37a11,11,0,0,1,11-11H215m0-1H41a12,12,0,0,0-12,12v25.26a12,12,0,0,0,12,12H215a12,12,0,0,0,12-12V115.37a12,12,0,0,0-12-12Z" transform="translate(-28 -31)"/><rect class="a" x="0.5" y="145.23" width="196.97" height="48.27" rx="11.5"/><path d="M214,176.73a11,11,0,0,1,11,11V213a11,11,0,0,1-11,11H40a11,11,0,0,1-11-11V187.73a11,11,0,0,1,11-11H214m0-1H40a12,12,0,0,0-12,12V213a12,12,0,0,0,12,12H214a12,12,0,0,0,12-12V187.73a12,12,0,0,0-12-12Z" transform="translate(-28 -31)"/></svg>